<svg width="24" height="24" viewBox="0 0 24 24" fill="none" xmlns="http://www.w3.org/2000/svg">
<path d="M14.72 8.79012L10.43 13.0901L8.78 11.4401C8.69036 11.3354 8.58004 11.2504 8.45597 11.1904C8.33191 11.1304 8.19678 11.0966 8.05906 11.0913C7.92134 11.086 7.78401 11.1092 7.65568 11.1595C7.52736 11.2098 7.41081 11.286 7.31335 11.3835C7.2159 11.4809 7.13964 11.5975 7.08937 11.7258C7.03909 11.8541 7.01589 11.9915 7.02121 12.1292C7.02653 12.2669 7.06026 12.402 7.12028 12.5261C7.1803 12.6502 7.26532 12.7605 7.37 12.8501L9.72 15.2101C9.81344 15.3028 9.92426 15.3761 10.0461 15.4259C10.1679 15.4757 10.2984 15.5009 10.43 15.5001C10.6923 15.499 10.9437 15.3949 11.13 15.2101L16.13 10.2101C16.2237 10.1172 16.2981 10.0066 16.3489 9.8847C16.3997 9.76284 16.4258 9.63213 16.4258 9.50012C16.4258 9.36811 16.3997 9.2374 16.3489 9.11555C16.2981 8.99369 16.2237 8.88309 16.13 8.79012C15.9426 8.60387 15.6892 8.49933 15.425 8.49933C15.1608 8.49933 14.9074 8.60387 14.72 8.79012ZM12 2.00012C10.0222 2.00012 8.08879 2.58661 6.4443 3.68543C4.79981 4.78424 3.51809 6.34603 2.76121 8.17329C2.00433 10.0005 1.8063 12.0112 2.19215 13.951C2.578 15.8908 3.53041 17.6727 4.92894 19.0712C6.32746 20.4697 8.10929 21.4221 10.0491 21.808C11.9889 22.1938 13.9996 21.9958 15.8268 21.2389C17.6541 20.482 19.2159 19.2003 20.3147 17.5558C21.4135 15.9113 22 13.9779 22 12.0001C22 10.6869 21.7413 9.38654 21.2388 8.17329C20.7363 6.96003 19.9997 5.85764 19.0711 4.92905C18.1425 4.00047 17.0401 3.26387 15.8268 2.76133C14.6136 2.25878 13.3132 2.00012 12 2.00012ZM12 20.0001C10.4178 20.0001 8.87104 19.5309 7.55544 18.6519C6.23985 17.7728 5.21447 16.5234 4.60897 15.0616C4.00347 13.5998 3.84504 11.9912 4.15372 10.4394C4.4624 8.88755 5.22433 7.46209 6.34315 6.34327C7.46197 5.22445 8.88743 4.46252 10.4393 4.15384C11.9911 3.84516 13.5997 4.00358 15.0615 4.60909C16.5233 5.21459 17.7727 6.23997 18.6518 7.55556C19.5308 8.87115 20 10.4179 20 12.0001C20 14.1219 19.1572 16.1567 17.6569 17.657C16.1566 19.1573 14.1217 20.0001 12 20.0001Z" fill="#1681FE"/>
</svg>
