<svg width="24" height="24" viewBox="0 0 24 24" fill="none" xmlns="http://www.w3.org/2000/svg">
<path d="M15.71 8.29008C15.617 8.19635 15.5064 8.12196 15.3846 8.07119C15.2627 8.02042 15.132 7.99428 15 7.99428C14.868 7.99428 14.7373 8.02042 14.6154 8.07119C14.4936 8.12196 14.383 8.19635 14.29 8.29008L12 10.5901L9.71 8.29008C9.5217 8.10178 9.2663 7.99599 9 7.99599C8.7337 7.99599 8.47831 8.10178 8.29 8.29008C8.1017 8.47838 7.99591 8.73378 7.99591 9.00008C7.99591 9.26638 8.1017 9.52178 8.29 9.71008L10.59 12.0001L8.29 14.2901C8.19627 14.383 8.12188 14.4936 8.07111 14.6155C8.02034 14.7374 7.9942 14.8681 7.9942 15.0001C7.9942 15.1321 8.02034 15.2628 8.07111 15.3847C8.12188 15.5065 8.19627 15.6171 8.29 15.7101C8.38297 15.8038 8.49357 15.8782 8.61543 15.929C8.73729 15.9797 8.86799 16.0059 9 16.0059C9.13201 16.0059 9.26272 15.9797 9.38458 15.929C9.50644 15.8782 9.61704 15.8038 9.71 15.7101L12 13.4101L14.29 15.7101C14.383 15.8038 14.4936 15.8782 14.6154 15.929C14.7373 15.9797 14.868 16.0059 15 16.0059C15.132 16.0059 15.2627 15.9797 15.3846 15.929C15.5064 15.8782 15.617 15.8038 15.71 15.7101C15.8037 15.6171 15.8781 15.5065 15.9289 15.3847C15.9797 15.2628 16.0058 15.1321 16.0058 15.0001C16.0058 14.8681 15.9797 14.7374 15.9289 14.6155C15.8781 14.4936 15.8037 14.383 15.71 14.2901L13.41 12.0001L15.71 9.71008C15.8037 9.61712 15.8781 9.50652 15.9289 9.38466C15.9797 9.2628 16.0058 9.13209 16.0058 9.00008C16.0058 8.86807 15.9797 8.73736 15.9289 8.6155C15.8781 8.49364 15.8037 8.38304 15.71 8.29008ZM19.07 4.93008C18.1475 3.97498 17.0441 3.21316 15.824 2.68907C14.604 2.16498 13.2918 1.88911 11.964 1.87757C10.6362 1.86604 9.31943 2.11905 8.09046 2.62186C6.8615 3.12467 5.74498 3.8672 4.80605 4.80613C3.86713 5.74506 3.1246 6.86158 2.62179 8.09054C2.11898 9.3195 1.86596 10.6363 1.8775 11.9641C1.88904 13.2919 2.1649 14.6041 2.68899 15.8241C3.21308 17.0442 3.9749 18.1476 4.93 19.0701C5.85247 20.0252 6.95592 20.787 8.17596 21.3111C9.396 21.8352 10.7082 22.111 12.036 22.1226C13.3638 22.1341 14.6806 21.8811 15.9095 21.3783C17.1385 20.8755 18.255 20.133 19.194 19.194C20.1329 18.2551 20.8754 17.1386 21.3782 15.9096C21.881 14.6807 22.134 13.3639 22.1225 12.0361C22.111 10.7083 21.8351 9.39607 21.311 8.17603C20.7869 6.95599 20.0251 5.85255 19.07 4.93008ZM17.66 17.6601C16.352 18.9695 14.6305 19.7849 12.7888 19.9674C10.9471 20.1499 9.09901 19.6881 7.55953 18.6609C6.02004 17.6336 4.88436 16.1043 4.34598 14.3336C3.80759 12.5628 3.89981 10.6602 4.60692 8.94986C5.31403 7.23951 6.59228 5.82723 8.22389 4.95364C9.85551 4.08006 11.7395 3.79921 13.555 4.15895C15.3705 4.5187 17.005 5.49677 18.1802 6.92654C19.3554 8.35631 19.9985 10.1493 20 12.0001C20.0036 13.0514 19.7986 14.0929 19.3969 15.0645C18.9953 16.036 18.4049 16.9182 17.66 17.6601Z" fill="#A9ADB3"/>
</svg>
